<svg width="65" height="64" viewBox="0 0 65 64" fill="none" xmlns="http://www.w3.org/2000/svg">
<rect x="0.3125" width="64" height="64" rx="8" fill="#FEECDC"/>
<path d="M15.5125 36.8V44C15.5125 47.9768 23.0341 51.2 32.3125 51.2C41.5909 51.2 49.1125 47.9768 49.1125 44V36.8C49.1125 40.7768 41.5909 44 32.3125 44C23.0341 44 15.5125 40.7768 15.5125 36.8Z" fill="#FF8A4C"/>
<path d="M15.5125 24.8V32C15.5125 35.9768 23.0341 39.2 32.3125 39.2C41.5909 39.2 49.1125 35.9768 49.1125 32V24.8C49.1125 28.7768 41.5909 32 32.3125 32C23.0341 32 15.5125 28.7768 15.5125 24.8Z" fill="#FF8A4C"/>
<path d="M49.1125 20C49.1125 23.9768 41.5909 27.2 32.3125 27.2C23.0341 27.2 15.5125 23.9768 15.5125 20C15.5125 16.0232 23.0341 12.8 32.3125 12.8C41.5909 12.8 49.1125 16.0232 49.1125 20Z" fill="#FF8A4C"/>
</svg>
