<svg viewBox="0 0 82 83" fill="none" xmlns="http://www.w3.org/2000/svg">
<path d="M70.5468 9.24826L44.9379 28.5003L49.6736 17.1419L70.5468 9.24826Z" fill="#E2761B" stroke="#E2761B" stroke-linecap="round" stroke-linejoin="round"/>
<path d="M11.4275 9.24826L36.8305 28.6827L32.3264 17.1419L11.4275 9.24826Z" fill="#E4761B" stroke="#E4761B" stroke-linecap="round" stroke-linejoin="round"/>
<path d="M61.3327 53.8745L54.5122 64.4513L69.1055 68.5154L73.3007 54.1089L61.3327 53.8745Z" fill="#E4761B" stroke="#E4761B" stroke-linecap="round" stroke-linejoin="round"/>
<path d="M8.72504 54.1089L12.8945 68.5154L27.4877 64.4513L20.6673 53.8745L8.72504 54.1089Z" fill="#E4761B" stroke="#E4761B" stroke-linecap="round" stroke-linejoin="round"/>
<path d="M26.6641 36.0031L22.5976 42.2294L37.0879 42.8807L36.5731 27.1196L26.6641 36.0031Z" fill="#E4761B" stroke="#E4761B" stroke-linecap="round" stroke-linejoin="round"/>
<path d="M55.3101 36.0031L45.2724 26.9372L44.9378 42.8807L59.4024 42.2294L55.3101 36.0031Z" fill="#E4761B" stroke="#E4761B" stroke-linecap="round" stroke-linejoin="round"/>
<path d="M27.4878 64.4513L36.1871 60.1528L28.6717 54.2131L27.4878 64.4513Z" fill="#E4761B" stroke="#E4761B" stroke-linecap="round" stroke-linejoin="round"/>
<path d="M45.7872 60.1528L54.5122 64.4513L53.3026 54.2131L45.7872 60.1528Z" fill="#E4761B" stroke="#E4761B" stroke-linecap="round" stroke-linejoin="round"/>
<path d="M54.5122 64.4513L45.7872 60.1528L46.4821 65.9102L46.4049 68.333L54.5122 64.4513Z" fill="#D7C1B3" stroke="#D7C1B3" stroke-linecap="round" stroke-linejoin="round"/>
<path d="M27.4878 64.4513L35.5951 68.333L35.5436 65.9102L36.1871 60.1528L27.4878 64.4513Z" fill="#D7C1B3" stroke="#D7C1B3" stroke-linecap="round" stroke-linejoin="round"/>
<path d="M35.7238 50.4096L28.4658 48.2473L33.5876 45.8766L35.7238 50.4096Z" fill="#233447" stroke="#233447" stroke-linecap="round" stroke-linejoin="round"/>
<path d="M46.2505 50.4096L48.3867 45.8766L53.5342 48.2473L46.2505 50.4096Z" fill="#233447" stroke="#233447" stroke-linecap="round" stroke-linejoin="round"/>
<path d="M27.4878 64.4513L28.7232 53.8745L20.6673 54.1089L27.4878 64.4513Z" fill="#CD6116" stroke="#CD6116" stroke-linecap="round" stroke-linejoin="round"/>
<path d="M53.2768 53.8745L54.5122 64.4513L61.3327 54.1089L53.2768 53.8745Z" fill="#CD6116" stroke="#CD6116" stroke-linecap="round" stroke-linejoin="round"/>
<path d="M59.4024 42.2294L44.9379 42.8807L46.2762 50.4096L48.4124 45.8766L53.56 48.2473L59.4024 42.2294Z" fill="#CD6116" stroke="#CD6116" stroke-linecap="round" stroke-linejoin="round"/>
<path d="M28.4658 48.2473L33.6133 45.8766L35.7238 50.4096L37.0879 42.8807L22.5976 42.2294L28.4658 48.2473Z" fill="#CD6116" stroke="#CD6116" stroke-linecap="round" stroke-linejoin="round"/>
<path d="M22.5976 42.2294L28.6717 54.2131L28.4658 48.2473L22.5976 42.2294Z" fill="#E4751F" stroke="#E4751F" stroke-linecap="round" stroke-linejoin="round"/>
<path d="M53.56 48.2473L53.3026 54.2131L59.4024 42.2294L53.56 48.2473Z" fill="#E4751F" stroke="#E4751F" stroke-linecap="round" stroke-linejoin="round"/>
<path d="M37.0879 42.8807L35.7238 50.4096L37.4225 59.2931L37.8085 47.596L37.0879 42.8807Z" fill="#E4751F" stroke="#E4751F" stroke-linecap="round" stroke-linejoin="round"/>
<path d="M44.9379 42.8807L44.243 47.57L44.5518 59.2931L46.2762 50.4096L44.9379 42.8807Z" fill="#E4751F" stroke="#E4751F" stroke-linecap="round" stroke-linejoin="round"/>
<path d="M46.2762 50.4096L44.5518 59.2932L45.7872 60.1529L53.3026 54.2131L53.5599 48.2473L46.2762 50.4096Z" fill="#F6851B" stroke="#F6851B" stroke-linecap="round" stroke-linejoin="round"/>
<path d="M28.4658 48.2473L28.6717 54.2131L36.1871 60.1529L37.4225 59.2932L35.7238 50.4096L28.4658 48.2473Z" fill="#F6851B" stroke="#F6851B" stroke-linecap="round" stroke-linejoin="round"/>
<path d="M46.4049 68.333L46.4821 65.9102L45.8387 65.3371H36.1356L35.5436 65.9102L35.5951 68.333L27.4878 64.4514L30.3189 66.796L36.0584 70.834H45.9159L51.6811 66.796L54.5122 64.4514L46.4049 68.333Z" fill="#C0AD9E" stroke="#C0AD9E" stroke-linecap="round" stroke-linejoin="round"/>
<path d="M45.7872 60.1528L44.5518 59.2932H37.4225L36.1871 60.1528L35.5436 65.9102L36.1356 65.3371H45.8387L46.4821 65.9102L45.7872 60.1528Z" fill="#161616" stroke="#161616" stroke-linecap="round" stroke-linejoin="round"/>
<path d="M71.6278 29.7508L73.8154 19.1218L70.5468 9.24826L45.7872 27.849L55.3101 36.0031L68.7709 39.989L71.7564 36.472L70.4696 35.5342L72.5286 33.6324L70.9328 32.382L72.9918 30.7928L71.6278 29.7508Z" fill="#763D16" stroke="#763D16" stroke-linecap="round" stroke-linejoin="round"/>
<path d="M8.18457 19.1218L10.3723 29.7508L8.98244 30.7928L11.0414 32.382L9.47145 33.6324L11.5305 35.5342L10.2436 36.472L13.2034 39.989L26.6642 36.0031L36.1871 27.849L11.4275 9.24826L8.18457 19.1218Z" fill="#763D16" stroke="#763D16" stroke-linecap="round" stroke-linejoin="round"/>
<path d="M68.7709 39.989L55.3101 36.0031L59.4024 42.2294L53.3026 54.2131L61.3327 54.1089H73.3007L68.7709 39.989Z" fill="#F6851B" stroke="#F6851B" stroke-linecap="round" stroke-linejoin="round"/>
<path d="M26.6641 36.0031L13.2034 39.989L8.72504 54.1089H20.6673L28.6717 54.2131L22.5976 42.2294L26.6641 36.0031Z" fill="#F6851B" stroke="#F6851B" stroke-linecap="round" stroke-linejoin="round"/>
<path d="M44.9378 42.8807L45.7872 27.849L49.6993 17.1419H32.3264L36.1871 27.849L37.0879 42.8807L37.3967 47.6221L37.4225 59.2932H44.5518L44.6033 47.6221L44.9378 42.8807Z" fill="#F6851B" stroke="#F6851B" stroke-linecap="round" stroke-linejoin="round"/>
</svg>
