<svg viewBox="0 0 48 48" fill="none" xmlns="http://www.w3.org/2000/svg">
<path d="M23.7982 0C11.2535 0 0.976566 9.67281 0 21.9655L12.7996 27.2575C13.8841 26.5157 15.1943 26.0812 16.6038 26.0812C16.7301 26.0812 16.8559 26.0866 16.9806 26.0925L22.6726 17.8422C22.6726 17.8028 22.6726 17.7644 22.6726 17.7256C22.6726 12.7596 26.7122 8.71946 31.6788 8.71946C36.6447 8.71946 40.6843 12.7596 40.6843 17.7256C40.6843 22.6915 36.6447 26.7322 31.6788 26.7322C31.6102 26.7322 31.5422 26.7322 31.4742 26.7268L23.3561 32.5193C23.3615 32.6245 23.3642 32.732 23.3642 32.8389C23.3642 36.567 20.3319 39.5987 16.6043 39.5987C13.3324 39.5987 10.5965 37.2634 9.97674 34.1706L0.822713 30.3885C3.65686 40.4122 12.866 47.7611 23.7982 47.7611C36.9875 47.7611 47.679 37.069 47.679 23.8813C47.679 10.6915 36.987 0 23.7982 0Z" fill="white"/>
<path d="M14.9648 36.235L12.0313 35.023C12.5512 36.1054 13.4506 37.0118 14.6447 37.5095C17.2262 38.5849 20.2023 37.36 21.2782 34.7763C21.7992 33.5272 21.8024 32.1479 21.2858 30.8954C20.7702 29.6425 19.7974 28.6654 18.5466 28.1439C17.3056 27.6273 15.9759 27.6462 14.8077 28.0872L17.8378 29.3402C19.7418 30.1337 20.6423 32.3201 19.8487 34.2241C19.0568 36.1286 16.8688 37.0291 14.9648 36.235Z" fill="white"/>
<path d="M37.6785 17.7256C37.6785 14.4169 34.9869 11.7247 31.6777 11.7247C28.369 11.7247 25.6768 14.4169 25.6768 17.7256C25.6768 21.0348 28.369 23.7259 31.6777 23.7259C34.9869 23.7259 37.6785 21.0342 37.6785 17.7256ZM27.1797 17.7153C27.1797 15.2256 29.1982 13.2077 31.6879 13.2077C34.1776 13.2077 36.1961 15.2256 36.1961 17.7153C36.1961 20.205 34.1776 22.223 31.6879 22.223C29.1982 22.223 27.1797 20.2045 27.1797 17.7153Z" fill="white"/>
</svg>
